<svg width="282" height="127" viewBox="0 0 282 127" fill="none" xmlns="http://www.w3.org/2000/svg">
<path d="M253.591 120.96C248.556 120.96 244.247 119.723 240.663 117.248C237.164 114.688 234.519 111.36 232.727 107.264C230.935 103.168 230.039 98.7734 230.039 94.0801C230.039 87.5947 231.234 81.8347 233.623 76.8001C236.098 71.6801 239.426 67.7121 243.607 64.8961C247.788 61.9947 252.482 60.5441 257.687 60.5441C262.722 60.5441 267.031 61.8241 270.615 64.3841C274.199 66.8587 276.887 70.1441 278.679 74.2401C280.471 78.3361 281.367 82.7307 281.367 87.4241C281.367 93.9094 280.13 99.7121 277.655 104.832C275.18 109.867 271.81 113.835 267.543 116.736C263.362 119.552 258.711 120.96 253.591 120.96ZM254.999 107.136C257.9 107.136 260.332 105.557 262.295 102.4C264.343 99.2427 265.367 94.6347 265.367 88.5761C265.367 83.8827 264.514 80.3414 262.807 77.9521C261.1 75.5627 259.052 74.3681 256.663 74.3681C253.591 74.3681 251.031 75.9467 248.983 79.1041C247.02 82.1761 246.039 86.7841 246.039 92.9281C246.039 97.7921 246.892 101.376 248.599 103.68C250.306 105.984 252.439 107.136 254.999 107.136Z" fill="url(#paint0_linear_24_10)"/>
<path d="M238.788 91.776C239.897 91.776 240.751 92.288 241.348 93.312C242.031 94.336 242.372 95.744 242.372 97.536C242.372 100.949 241.561 103.595 239.94 105.472C236.441 109.739 232.601 113.408 228.42 116.48C224.239 119.467 220.1 120.96 216.004 120.96C209.519 120.96 204.569 117.163 201.156 109.568C197.572 114.091 194.415 117.12 191.684 118.656C189.039 120.192 185.924 120.96 182.34 120.96C177.135 120.96 172.825 119.04 169.412 115.2C166.084 111.275 164.42 106.197 164.42 99.968C164.42 93.1413 165.871 86.8267 168.772 81.024C171.673 75.136 175.641 70.3573 180.676 66.688C185.796 62.9333 191.513 60.7147 197.828 60.032C199.449 43.4773 202.521 29.3547 207.044 17.664C211.652 5.888 217.668 0 225.092 0C228.761 0 231.791 1.664 234.18 4.992C236.655 8.32 237.892 13.3547 237.892 20.096C237.892 29.6533 235.545 40.832 230.852 53.632C226.159 66.432 219.887 79.5733 212.036 93.056C212.377 98.0053 213.103 101.547 214.212 103.68C215.407 105.813 216.9 106.88 218.692 106.88C220.996 106.88 223.343 105.856 225.732 103.808C228.121 101.76 231.321 98.3467 235.332 93.568C236.356 92.3733 237.508 91.776 238.788 91.776ZM223.684 12.544C222.063 12.544 220.441 15.4453 218.82 21.248C217.199 26.9653 215.791 34.4747 214.596 43.776C213.487 53.0773 212.676 62.8053 212.164 72.96C221.721 52.1387 226.5 35.4133 226.5 22.784C226.5 19.5413 226.201 17.024 225.604 15.232C225.092 13.44 224.452 12.544 223.684 12.544ZM186.82 108.032C188.441 108.032 190.063 107.392 191.684 106.112C193.305 104.747 195.353 102.272 197.828 98.688C196.975 94.08 196.548 88.9173 196.548 83.2C196.548 81.152 196.633 77.824 196.804 73.216C192.111 74.6667 188.185 77.824 185.028 82.688C181.956 87.4667 180.42 92.8 180.42 98.688C180.42 104.917 182.553 108.032 186.82 108.032Z" fill="url(#paint1_linear_24_10)"/>
<path d="M120.015 120.96C116.175 120.96 113.018 119.211 110.543 115.712C108.154 112.128 106.959 107.691 106.959 102.4C106.959 96.0001 107.386 90.1548 108.239 84.8641C109.092 79.4881 110.5 73.8135 112.463 67.8401C113.316 65.2801 114.511 63.4455 116.047 62.3361C117.583 61.2268 120.015 60.6721 123.343 60.6721C125.22 60.6721 126.5 60.9708 127.183 61.5681C127.951 62.1655 128.335 63.0615 128.335 64.2561C128.335 64.9388 127.866 67.2428 126.927 71.1681C126.074 74.3255 125.391 77.1841 124.879 79.7441C123.172 88.7041 122.319 94.6774 122.319 97.6641C122.319 99.4561 122.532 100.736 122.959 101.504C123.386 102.187 124.068 102.528 125.007 102.528C126.287 102.528 127.866 101.248 129.743 98.6881C131.706 96.1281 133.754 92.2455 135.887 87.0401C138.106 81.8348 140.239 75.4348 142.287 67.8401C142.97 65.2801 143.994 63.4455 145.359 62.3361C146.81 61.2268 148.943 60.6721 151.759 60.6721C153.722 60.6721 155.087 60.9281 155.855 61.4401C156.623 61.8668 157.007 62.7201 157.007 64.0001C157.007 66.1334 155.94 71.9788 153.807 81.5361C151.418 92.4588 150.223 99.2001 150.223 101.76C150.223 103.381 150.564 104.661 151.247 105.6C151.93 106.453 152.826 106.88 153.935 106.88C155.642 106.88 157.647 105.856 159.951 103.808C162.34 101.675 165.498 98.2615 169.423 93.5681C170.447 92.3735 171.599 91.7761 172.879 91.7761C173.988 91.7761 174.842 92.2881 175.439 93.3121C176.122 94.3361 176.463 95.7441 176.463 97.5361C176.463 100.949 175.652 103.595 174.031 105.472C170.362 109.995 166.394 113.707 162.127 116.608C157.946 119.509 153.167 120.96 147.791 120.96C143.695 120.96 140.666 119.381 138.703 116.224C136.826 113.067 135.887 108.629 135.887 102.912C134.436 108.715 132.26 113.195 129.359 116.352C126.458 119.424 123.343 120.96 120.015 120.96Z" fill="url(#paint2_linear_24_10)"/>
<path d="M108.544 38.4C108.544 45.6533 105.984 51.9253 100.864 57.216C95.744 62.4213 88.2773 66.176 78.464 68.48C83.7547 69.9307 87.7653 72.32 90.496 75.648C93.2267 78.8907 94.592 82.6453 94.592 86.912C94.592 93.6533 92.4587 99.4987 88.192 104.448C84.0107 109.397 77.8667 113.237 69.76 115.968C61.6533 118.613 51.8827 119.936 40.448 119.936C36.1813 119.936 32.768 119.808 30.208 119.552C30.1227 121.941 29.0987 123.733 27.136 124.928C25.1733 126.123 22.656 126.72 19.584 126.72C16.512 126.72 14.3787 126.037 13.184 124.672C12.0747 123.307 11.6053 121.301 11.776 118.656C12.544 106.709 14.0373 94.208 16.256 81.152C18.4747 68.0107 21.2907 55.3387 24.704 43.136C25.3013 41.0027 26.496 39.5093 28.288 38.656C30.08 37.8027 32.4267 37.376 35.328 37.376C40.5333 37.376 43.136 38.8267 43.136 41.728C43.136 42.9227 42.88 44.288 42.368 45.824C40.1493 52.48 37.9307 61.5253 35.712 72.96C33.4933 84.3093 31.9147 95.1467 30.976 105.472C35.072 105.813 38.4 105.984 40.96 105.984C52.9067 105.984 61.6533 104.277 67.2 100.864C72.832 97.3654 75.648 92.928 75.648 87.552C75.648 83.7973 74.0267 80.64 70.784 78.08C67.6267 75.52 62.2933 74.112 54.784 73.856C53.0773 73.7707 51.8827 73.344 51.2 72.576C50.5173 71.808 50.176 70.5707 50.176 68.864C50.176 66.3893 50.688 64.384 51.712 62.848C52.736 61.312 54.6133 60.5013 57.344 60.416C63.4027 60.2453 68.864 59.3493 73.728 57.728C78.6773 56.1067 82.56 53.8453 85.376 50.944C88.192 47.9573 89.6 44.5013 89.6 40.576C89.6 35.6267 87.168 31.744 82.304 28.928C77.44 26.0267 69.9733 24.576 59.904 24.576C50.7733 24.576 41.9413 25.7707 33.408 28.16C24.8747 30.464 17.6213 33.408 11.648 36.992C8.91733 38.6133 6.61333 39.424 4.736 39.424C3.2 39.424 2.00533 38.912 1.152 37.888C0.384 36.7787 0 35.4133 0 33.792C0 31.6587 0.426667 29.824 1.28 28.288C2.21867 26.752 4.39467 25.0027 7.808 23.04C14.976 18.944 23.3813 15.744 33.024 13.44C42.6667 11.136 52.5227 9.98401 62.592 9.98401C78.0373 9.98401 89.5573 12.5867 97.152 17.792C104.747 22.9973 108.544 29.8667 108.544 38.4Z" fill="url(#paint3_linear_24_10)"/>
<defs>
<linearGradient id="paint0_linear_24_10" x1="4.93994" y1="-20.6799" x2="255.44" y2="126.32" gradientUnits="userSpaceOnUse">
<stop stop-color="#0DFF11"/>
<stop offset="1" stop-color="white"/>
</linearGradient>
<linearGradient id="paint1_linear_24_10" x1="4.93995" y1="-20.6799" x2="255.44" y2="126.32" gradientUnits="userSpaceOnUse">
<stop stop-color="#0DFF11"/>
<stop offset="1" stop-color="white"/>
</linearGradient>
<linearGradient id="paint2_linear_24_10" x1="4.93994" y1="-20.6799" x2="255.44" y2="126.32" gradientUnits="userSpaceOnUse">
<stop stop-color="#0DFF11"/>
<stop offset="1" stop-color="white"/>
</linearGradient>
<linearGradient id="paint3_linear_24_10" x1="4.93994" y1="-20.6799" x2="255.44" y2="126.32" gradientUnits="userSpaceOnUse">
<stop stop-color="#0DFF11"/>
<stop offset="1" stop-color="white"/>
</linearGradient>
</defs>
</svg>
